<svg width="38" height="38" viewBox="0 0 38 38" fill="none" xmlns="http://www.w3.org/2000/svg">
<path d="M30.8731 4.41031C31.597 4.41031 32.1837 3.82353 32.1837 3.09969C32.1837 2.37585 31.597 1.78906 30.8731 1.78906C30.1493 1.78906 29.5625 2.37585 29.5625 3.09969C29.5625 3.82353 30.1493 4.41031 30.8731 4.41031Z" fill="#00EDCD"/>
<path opacity="0.75" d="M3.21509 25.6196L23.6507 5.18396C23.6817 5.15303 23.7098 5.10521 23.7379 5.0574C23.9545 4.68615 23.977 4.33178 23.9432 3.86209C23.8842 3.06615 24.0726 2.63584 24.4579 2.34896C24.967 1.96646 26.7304 2.04521 30.0295 5.34428C33.3285 8.64334 36.9756 13.8193 36.5931 14.3283C36.3062 14.7136 35.8759 14.8993 35.0799 14.843C34.6103 14.8093 34.2559 14.8289 33.8846 15.0483C33.834 15.0764 33.789 15.1046 33.7581 15.1355L13.3224 35.5711C10.5156 38.378 4.70156 37.7016 3 36L2.98875 35.9888L2.9775 35.9775C1.27031 34.2731 0.405406 28.4265 3.21509 25.6196Z" fill="#81D4FA"/>
<path opacity="0.39" d="M28.0656 6.52953C26.2769 4.74078 24.9156 3.84359 23.9341 3.44141C23.9284 3.56797 23.9284 3.70859 23.9397 3.86047C23.965 4.19516 23.9566 4.47078 23.875 4.73516C24.7666 5.21609 25.8831 6.01484 27.2528 7.29734C29.2216 9.14234 33.7297 13.9498 34.1206 14.9314C34.3793 14.8358 34.6437 14.8189 34.9587 14.8329C34.7703 13.8486 30.3719 8.83297 28.0656 6.52953Z" fill="#1D44B3"/>
<path d="M15.229 13.6445L3.2815 25.578C0.367747 28.4889 1.17425 34.3771 2.86737 36.0703C4.5605 37.7606 10.4107 38.3864 13.33 35.467L32.2582 16.6458L15.229 13.6445Z" fill="#00BFA5"/>
<path d="M12.6731 23.0689C13.4591 23.0689 14.0962 22.4318 14.0962 21.6458C14.0962 20.8598 13.4591 20.2227 12.6731 20.2227C11.8872 20.2227 11.25 20.8598 11.25 21.6458C11.25 22.4318 11.8872 23.0689 12.6731 23.0689Z" fill="#00937A"/>
<path d="M27.163 11.7556C27.9023 11.7556 28.5017 11.1562 28.5017 10.4169C28.5017 9.6775 27.9023 9.07812 27.163 9.07812C26.4236 9.07812 25.8242 9.6775 25.8242 10.4169C25.8242 11.1562 26.4236 11.7556 27.163 11.7556Z" fill="#00BFA5"/>
<path opacity="0.69" d="M20.6053 16.9411C21.0604 16.9411 21.4294 16.5721 21.4294 16.117C21.4294 15.6619 21.0604 15.293 20.6053 15.293C20.1502 15.293 19.7812 15.6619 19.7812 16.117C19.7812 16.5721 20.1502 16.9411 20.6053 16.9411Z" fill="white"/>
<path d="M34.2666 3.98625C34.6036 3.98625 34.8769 3.713 34.8769 3.37594C34.8769 3.03887 34.6036 2.76562 34.2666 2.76562C33.9295 2.76562 33.6562 3.03887 33.6562 3.37594C33.6562 3.713 33.9295 3.98625 34.2666 3.98625Z" fill="#00BFA5"/>
<path d="M16.6367 21.5273C17.258 21.5273 17.7617 21.0237 17.7617 20.4023C17.7617 19.781 17.258 19.2773 16.6367 19.2773C16.0154 19.2773 15.5117 19.781 15.5117 20.4023C15.5117 21.0237 16.0154 21.5273 16.6367 21.5273Z" fill="#00EDCD"/>
<path d="M17.9292 17.6241C18.1684 17.6241 18.3623 17.4301 18.3623 17.1909C18.3623 16.9517 18.1684 16.7578 17.9292 16.7578C17.69 16.7578 17.4961 16.9517 17.4961 17.1909C17.4961 17.4301 17.69 17.6241 17.9292 17.6241Z" fill="#00EDCD"/>
<path opacity="0.6" d="M26.2109 4.125C27.1137 4.71 27.935 5.41875 28.6438 6.22313" stroke="white" stroke-width="1.17984" stroke-miterlimit="10" stroke-linecap="round"/>
<path d="M32.2605 16.6214C32.0242 16.8296 31.2564 16.9674 29.2371 17.2824C28.1655 17.4511 23.2861 14.2068 21.7815 14.3305C17.0649 14.7215 13.884 14.0774 15.7711 13.3068C17.2871 12.688 26.2389 16.2361 29.6083 16.343C31.2339 16.3964 32.4461 16.4611 32.2605 16.6214Z" fill="#00EDCD"/>
<g opacity="0.6">
<path d="M3.27012 29.1108C2.78637 28.9111 2.98324 28.3571 3.27012 28.0674L22.2545 8.57956C23.4076 7.38706 24.4623 6.57706 25.0529 7.13956C25.7139 7.76675 25.5029 8.89175 22.9126 11.2149L4.72137 28.4189C4.57793 28.5624 3.75387 29.3105 3.27012 29.1108Z" fill="white"/>
</g>
</svg>
